<svg width="20" height="20" viewBox="0 0 20 20" fill="none" xmlns="http://www.w3.org/2000/svg">
<g clip-path="url(#clip0_2118_1643)">
<path d="M17.5 4.16664H9.76667L9.5 3.33331C9.32713 2.84434 9.00646 2.42123 8.58242 2.12261C8.15838 1.82399 7.65196 1.66465 7.13333 1.66664H2.5C1.83696 1.66664 1.20107 1.93004 0.732233 2.39888C0.263392 2.86772 0 3.5036 0 4.16664L0 15.8333C0 16.4964 0.263392 17.1322 0.732233 17.6011C1.20107 18.0699 1.83696 18.3333 2.5 18.3333H17.5C18.163 18.3333 18.7989 18.0699 19.2678 17.6011C19.7366 17.1322 20 16.4964 20 15.8333V6.66664C20 6.0036 19.7366 5.36772 19.2678 4.89888C18.7989 4.43004 18.163 4.16664 17.5 4.16664ZM18.3333 15.8333C18.3333 16.0543 18.2455 16.2663 18.0893 16.4226C17.933 16.5788 17.721 16.6666 17.5 16.6666H2.5C2.27899 16.6666 2.06702 16.5788 1.91074 16.4226C1.75446 16.2663 1.66667 16.0543 1.66667 15.8333V4.16664C1.66667 3.94563 1.75446 3.73367 1.91074 3.57739C2.06702 3.42111 2.27899 3.33331 2.5 3.33331H7.13333C7.30804 3.33286 7.47846 3.38733 7.62052 3.48901C7.76258 3.5907 7.8691 3.73446 7.925 3.89998L8.56667 5.83331H17.5C17.721 5.83331 17.933 5.92111 18.0893 6.07739C18.2455 6.23367 18.3333 6.44563 18.3333 6.66664V15.8333Z" fill="black"/>
</g>
<defs>
<clipPath id="clip0_2118_1643">
<rect width="20" height="20" fill="white"/>
</clipPath>
</defs>
</svg>
