<svg width="21" height="21" viewBox="0 0 21 21" fill="none" xmlns="http://www.w3.org/2000/svg">
<path d="M19.2957 10.9135C19.0304 10.9135 18.7761 11.0189 18.5885 11.2064C18.401 11.3939 18.2957 11.6483 18.2957 11.9135V17.9135C18.2957 18.1787 18.1903 18.4331 18.0028 18.6206C17.8152 18.8082 17.5609 18.9135 17.2957 18.9135H3.29565C3.03044 18.9135 2.77608 18.8082 2.58855 18.6206C2.40101 18.4331 2.29565 18.1787 2.29565 17.9135V3.91351C2.29565 3.6483 2.40101 3.39394 2.58855 3.20641C2.77608 3.01887 3.03044 2.91351 3.29565 2.91351H9.29565C9.56087 2.91351 9.81522 2.80816 10.0028 2.62062C10.1903 2.43308 10.2957 2.17873 10.2957 1.91351C10.2957 1.6483 10.1903 1.39394 10.0028 1.20641C9.81522 1.01887 9.56087 0.913513 9.29565 0.913513H3.29565C2.5 0.913513 1.73694 1.22958 1.17433 1.79219C0.611725 2.3548 0.295654 3.11786 0.295654 3.91351V17.9135C0.295654 18.7092 0.611725 19.4722 1.17433 20.0348C1.73694 20.5974 2.5 20.9135 3.29565 20.9135H17.2957C18.0913 20.9135 18.8544 20.5974 19.417 20.0348C19.9796 19.4722 20.2957 18.7092 20.2957 17.9135V11.9135C20.2957 11.6483 20.1903 11.3939 20.0028 11.2064C19.8152 11.0189 19.5609 10.9135 19.2957 10.9135ZM4.29565 11.6735V15.9135C4.29565 16.1787 4.40101 16.4331 4.58855 16.6206C4.77608 16.8082 5.03044 16.9135 5.29565 16.9135H9.53565C9.66726 16.9143 9.79772 16.889 9.91956 16.8393C10.0414 16.7895 10.1522 16.7162 10.2457 16.6235L17.1657 9.69351L20.0057 6.91351C20.0994 6.82055 20.1738 6.70995 20.2245 6.58809C20.2753 6.46623 20.3015 6.33553 20.3015 6.20351C20.3015 6.0715 20.2753 5.9408 20.2245 5.81894C20.1738 5.69708 20.0994 5.58648 20.0057 5.49351L15.7657 1.20351C15.6727 1.10978 15.5621 1.03539 15.4402 0.984622C15.3184 0.933853 15.1877 0.907715 15.0557 0.907715C14.9236 0.907715 14.7929 0.933853 14.6711 0.984622C14.5492 1.03539 14.4386 1.10978 14.3457 1.20351L11.5257 4.03351L4.58565 10.9635C4.49297 11.057 4.41965 11.1678 4.36988 11.2896C4.32012 11.4114 4.29489 11.5419 4.29565 11.6735ZM15.0557 3.32351L17.8857 6.15351L16.4657 7.57351L13.6357 4.74351L15.0557 3.32351ZM6.29565 12.0835L12.2257 6.15351L15.0557 8.98351L9.12565 14.9135H6.29565V12.0835Z" fill="#B9B9B9"/>
</svg>
