<svg width="20" height="20" viewBox="0 0 20 20" fill="none" xmlns="http://www.w3.org/2000/svg">
<g clip-path="url(#clip0_2118_1613)">
<path d="M10 5.25476L2.86713 11.1351C2.86713 11.1434 2.86504 11.1556 2.86087 11.1722C2.85679 11.1888 2.85461 11.2007 2.85461 11.2093V17.1637C2.85461 17.3787 2.93322 17.565 3.09037 17.7219C3.24749 17.8789 3.43354 17.9579 3.64858 17.9579H8.41201V13.1942H11.5881V17.9581H16.3515C16.5665 17.9581 16.7528 17.8793 16.9097 17.7219C17.0668 17.5652 17.1457 17.3788 17.1457 17.1637V11.2093C17.1457 11.1762 17.1412 11.1513 17.1332 11.1351L10 5.25476Z" fill="black"/>
<path d="M19.862 9.7953L17.1454 7.53754V2.47615C17.1454 2.36045 17.1082 2.26529 17.0336 2.19082C16.9596 2.11643 16.8644 2.07924 16.7484 2.07924H14.3667C14.2508 2.07924 14.1557 2.11643 14.0812 2.19082C14.0069 2.26529 13.9697 2.36049 13.9697 2.47615V4.89516L10.9429 2.3644C10.6785 2.14937 10.3642 2.04187 10.0003 2.04187C9.63639 2.04187 9.32211 2.14937 9.0575 2.3644L0.137848 9.7953C0.0551624 9.86134 0.00984395 9.95024 0.00141463 10.0619C-0.00697125 10.1735 0.0219231 10.2709 0.0881845 10.3536L0.857295 11.2716C0.923556 11.346 1.01028 11.3915 1.11782 11.4081C1.21711 11.4165 1.31639 11.3874 1.41567 11.3213L10 4.16324L18.5845 11.3213C18.6508 11.379 18.7374 11.4078 18.845 11.4078H18.8823C18.9896 11.3914 19.0762 11.3456 19.1428 11.2714L19.912 10.3535C19.9781 10.2707 20.0071 10.1734 19.9985 10.0617C19.99 9.95037 19.9445 9.86147 19.862 9.7953Z" fill="black"/>
</g>
<defs>
<clipPath id="clip0_2118_1613">
<rect width="20" height="20" fill="white"/>
</clipPath>
</defs>
</svg>
