<svg width="28" height="28" viewBox="0 0 28 28" fill="none" xmlns="http://www.w3.org/2000/svg">
<path fill-rule="evenodd" clip-rule="evenodd" d="M13.8678 2.34973C7.52554 2.34973 2.37817 7.55006 2.37817 13.9576C2.37817 20.3652 7.52554 25.5655 13.8678 25.5655C20.2101 25.5655 25.3575 20.3652 25.3575 13.9576C25.3575 7.55006 20.2101 2.34973 13.8678 2.34973ZM18.4637 15.1184H15.0168V18.6008C15.0168 19.2392 14.4998 19.7616 13.8678 19.7616C13.2359 19.7616 12.7189 19.2392 12.7189 18.6008V15.1184H9.27196C8.64003 15.1184 8.123 14.596 8.123 13.9576C8.123 13.3192 8.64003 12.7968 9.27196 12.7968H12.7189V9.31446C12.7189 8.67603 13.2359 8.15367 13.8678 8.15367C14.4998 8.15367 15.0168 8.67603 15.0168 9.31446V12.7968H18.4637C19.0956 12.7968 19.6126 13.3192 19.6126 13.9576C19.6126 14.596 19.0956 15.1184 18.4637 15.1184Z" fill="#1D1D1D"/>
</svg>
