<svg width="50" height="50" viewBox="0 0 50 50" fill="none" xmlns="http://www.w3.org/2000/svg">
<path d="M30.29 4.32001H25.75V8.54501H30.29V4.32001Z" fill="black"/>
<path d="M25.75 21.27C25.75 22.545 27.16 23.58 28.89 23.58C30.6 23.58 31.99 22.57 32.03 21.32L31.985 21L31.865 20.17H25.75V21.27Z" fill="black"/>
<path d="M25.75 10.465V18.67H31.645L30.39 10.045H25.75V10.465Z" fill="black"/>
<path d="M36.33 4.32001H31.79V8.54501H36.33V4.32001Z" fill="black"/>
<path d="M39.0248 18.67L36.8198 11.08L36.5148 10.045H31.9048L33.1598 18.67H39.0248Z" fill="black"/>
<path d="M44.2501 18.67H46.3901L42.6301 10.045H38.0801L39.3101 14.285L40.5851 18.67H44.2501Z" fill="black"/>
<path d="M41.9601 4.32001H37.8301V8.54501H41.9601V4.32001Z" fill="black"/>
<path d="M33.5299 21.27C33.5299 22.545 34.9399 23.58 36.6699 23.58C38.3549 23.58 39.7349 22.595 39.8049 21.37L39.4549 20.17H33.3799L33.5249 21.16C33.5249 21.2 33.5299 21.235 33.5299 21.27Z" fill="black"/>
<path d="M44.25 20.17H41.02L41.28 21.06C41.3 21.13 41.31 21.2 41.31 21.27V21.275C41.315 22.495 42.61 23.495 44.245 23.575H44.25C44.315 23.58 44.38 23.58 44.445 23.58C46.11 23.58 47.48 22.62 47.58 21.41L47.04 20.165H44.25V20.17Z" fill="black"/>
<path d="M20.6898 31.61H8.00977V39.745H20.6898V31.61Z" fill="black"/>
<path d="M40.5601 23.34C39.7301 24.385 38.3001 25.08 36.6701 25.08C35.0401 25.08 33.6101 24.385 32.7801 23.34C31.9501 24.385 30.5201 25.08 28.8901 25.08C27.2601 25.08 25.8301 24.385 25.0001 23.34C24.1701 24.385 22.7401 25.08 21.1101 25.08C19.4801 25.08 18.0501 24.385 17.2201 23.34C16.3901 24.385 14.9601 25.08 13.3301 25.08C11.7001 25.08 10.2651 24.385 9.44008 23.34C8.70508 24.27 7.48508 24.925 6.08008 25.055V47.82H25.1051V30.135C25.1051 29.72 25.4401 29.385 25.8551 29.385H40.3301C40.7451 29.385 41.0801 29.72 41.0801 30.135V47.825H43.5001V25C42.2701 24.79 41.2251 24.175 40.5601 23.34ZM22.1901 40.495C22.1901 40.91 21.8551 41.245 21.4401 41.245H7.26008C6.84508 41.245 6.51008 40.91 6.51008 40.495V30.86C6.51008 30.445 6.84508 30.11 7.26008 30.11H21.4401C21.8551 30.11 22.1901 30.445 22.1901 30.86V40.495Z" fill="black"/>
<path d="M8.68992 21.27C8.68992 21.2 8.69992 21.13 8.71992 21.06L8.97992 20.17H5.32992H2.95992L2.41992 21.415C2.51992 22.625 3.88992 23.585 5.55492 23.585C7.27992 23.58 8.68992 22.545 8.68992 21.27Z" fill="black"/>
<path d="M39.58 30.885H26.605V47.825H39.58V30.885Z" fill="black"/>
<path d="M17.0001 17.555L18.0951 10.045H13.4851L11.3201 17.485L10.9751 18.67H16.8401L17.0001 17.555Z" fill="black"/>
<path d="M12.17 4.32001H8.04004V8.54501H12.17V4.32001Z" fill="black"/>
<path d="M21.1101 23.58C22.8401 23.58 24.2501 22.545 24.2501 21.27V20.17H18.1401L17.9751 21.32C18.0101 22.57 19.4001 23.58 21.1101 23.58Z" fill="black"/>
<path d="M24.25 4.32001H19.71V8.54501H24.25V4.32001Z" fill="black"/>
<path d="M24.25 10.465V10.045H19.61L18.715 16.205L18.355 18.67H24.25V10.465Z" fill="black"/>
<path d="M18.2099 4.32001H13.6699V8.54501H18.2099V4.32001Z" fill="black"/>
<path d="M13.3299 23.58C15.0599 23.58 16.4699 22.545 16.4699 21.27C16.4699 21.235 16.4699 21.195 16.4799 21.16L16.6249 20.17H10.5399L10.1899 21.37C10.2649 22.595 11.6449 23.58 13.3299 23.58Z" fill="black"/>
<path d="M3.60986 18.67H5.32986H9.41486L11.9199 10.045H7.36986L3.60986 18.67Z" fill="black"/>
</svg>
