<svg width="32" height="33" viewBox="0 0 32 33" fill="none" xmlns="http://www.w3.org/2000/svg">
<path d="M27.9748 14.1407H8.79205L13.4079 9.47738C13.8015 9.07968 13.9874 8.60528 13.9874 8.08444C13.9874 7.0912 13.1751 6.06567 11.9892 6.06567C11.4586 6.06567 10.9961 6.26048 10.6104 6.65111L2.65957 14.6838C2.33187 15.0148 1.99817 15.4236 1.99817 16.1595C1.99817 16.8953 2.27692 17.2496 2.64359 17.6201L10.6104 25.6678C10.9961 26.0585 11.4586 26.2533 11.9892 26.2533C13.1761 26.2533 13.9874 25.2278 13.9874 24.2345C13.9874 23.7137 13.8015 23.2393 13.4079 22.8416L8.79205 18.1782H27.9748C29.0778 18.1782 29.973 17.2738 29.973 16.1595C29.973 15.0451 29.0778 14.1407 27.9748 14.1407Z" fill="black"/>
</svg>
