<svg width="20" height="20" viewBox="0 0 20 20" fill="none" xmlns="http://www.w3.org/2000/svg">
<g clip-path="url(#clip0_2118_1627)">
<path d="M11.1077 7.68231H6.60113C6.54183 7.68231 6.48496 7.65875 6.44303 7.61682C6.4011 7.57489 6.37754 7.51802 6.37754 7.45873C6.37754 7.39943 6.4011 7.34256 6.44303 7.30063C6.48496 7.2587 6.54183 7.23514 6.60113 7.23514H10.8394C10.7387 7.03148 10.6491 6.82249 10.5711 6.60911H6.60113C6.54183 6.60911 6.48496 6.58555 6.44303 6.54362C6.4011 6.50169 6.37754 6.44482 6.37754 6.38553C6.37754 6.32623 6.4011 6.26936 6.44303 6.22743C6.48496 6.1855 6.54183 6.16194 6.60113 6.16194H10.4333C10.3321 5.7703 10.2822 5.36715 10.2849 4.96264C10.28 4.23196 10.4437 3.51 10.7634 2.85291H2.40759C2.32251 2.85353 2.23842 2.87135 2.1604 2.90528C2.08237 2.93922 2.01201 2.98858 1.95353 3.05039C1.89506 3.1122 1.84968 3.1852 1.82013 3.26499C1.79058 3.34478 1.77746 3.42972 1.78156 3.51471V16.3574H11.0004C11.2258 16.3513 11.4456 16.428 11.6183 16.5729C11.6539 16.5995 11.6869 16.6294 11.7167 16.6623L11.7435 16.6704C11.8891 16.8367 11.972 17.0486 11.9779 17.2696V18.2587C11.9779 18.8382 12.3356 19.6655 12.7828 19.6655V19.6539C12.603 19.6507 12.4255 19.6121 12.2607 19.5402C12.0959 19.4683 11.9468 19.3646 11.8222 19.235C11.6975 19.1053 11.5997 18.9524 11.5344 18.7848C11.469 18.6173 11.4374 18.4385 11.4413 18.2587V17.2705C11.4357 17.1739 11.3968 17.0823 11.3313 17.0111C11.3137 17.0027 11.2966 16.9931 11.2803 16.9825C11.201 16.9196 11.1014 16.8878 11.0004 16.8931H0.751285C0.699647 16.8896 0.647857 16.8968 0.599102 16.9142C0.550346 16.9315 0.505659 16.9587 0.46779 16.9939C0.429921 17.0292 0.399673 17.0719 0.378908 17.1193C0.358142 17.1667 0.347299 17.2178 0.347046 17.2696V18.231C0.347037 18.6088 0.496445 18.9713 0.762673 19.2393C1.0289 19.5074 1.39034 19.6593 1.76814 19.6619H12.7783C13.097 19.6661 13.4072 19.5592 13.6556 19.3596C13.8253 19.2293 13.9633 19.0622 14.0592 18.8709C14.1551 18.6796 14.2064 18.4691 14.2092 18.2551V9.72318C13.5818 9.60845 12.9838 9.36864 12.451 9.01802C11.9182 8.66741 11.4613 8.21315 11.1077 7.68231ZM4.06569 5.90885C4.30136 5.90878 4.53072 5.98502 4.71945 6.12617L3.91455 6.93107L3.76966 6.76025C3.75077 6.73062 3.72575 6.70538 3.69628 6.68623C3.66682 6.66709 3.63359 6.65448 3.59884 6.64925C3.56409 6.64403 3.52862 6.64631 3.49483 6.65595C3.46103 6.66559 3.4297 6.68236 3.40293 6.70513C3.37616 6.72789 3.35459 6.75613 3.33965 6.78794C3.32472 6.81975 3.31677 6.8544 3.31636 6.88953C3.31594 6.92467 3.32305 6.95949 3.33723 6.99165C3.3514 7.02381 3.3723 7.05255 3.39851 7.07595L3.716 7.45157C3.73785 7.47822 3.76508 7.49995 3.7959 7.51537C3.82672 7.53078 3.86044 7.53951 3.89487 7.54101H3.90471C3.93778 7.54153 3.97062 7.53547 4.00132 7.52319C4.03203 7.51091 4.05999 7.49264 4.08357 7.46946L5.03962 6.50179C5.14946 6.71427 5.1868 6.95683 5.14597 7.19251C5.10513 7.42819 4.98834 7.64405 4.81341 7.80718C4.63848 7.97031 4.41501 8.07176 4.17706 8.09607C3.93911 8.12039 3.69974 8.06622 3.49543 7.94184C3.29113 7.81746 3.1331 7.62968 3.04544 7.40713C2.95778 7.18458 2.9453 6.93947 3.0099 6.70917C3.0745 6.47887 3.21264 6.27601 3.40325 6.13152C3.59387 5.98703 3.8265 5.90883 4.06569 5.90885ZM4.06569 9.39675C4.30136 9.39668 4.53072 9.47293 4.71945 9.61407L3.91455 10.419L3.76966 10.2473C3.72722 10.1986 3.66735 10.1686 3.60298 10.1637C3.53861 10.1588 3.47489 10.1795 3.42559 10.2211C3.37628 10.2628 3.34534 10.3222 3.33944 10.3865C3.33354 10.4508 3.35315 10.5148 3.39404 10.5647L3.71153 10.9404C3.73338 10.967 3.76061 10.9888 3.79143 11.0042C3.82225 11.0196 3.85597 11.0283 3.8904 11.0298H3.90024C3.93339 11.0304 3.96631 11.0242 3.99704 11.0118C4.02777 10.9993 4.05568 10.9808 4.0791 10.9574L5.04409 9.99238C5.15393 10.2049 5.19128 10.4474 5.15044 10.6831C5.1096 10.9188 4.99281 11.1346 4.81788 11.2978C4.64296 11.4609 4.41948 11.5623 4.18153 11.5867C3.94358 11.611 3.70421 11.5568 3.4999 11.4324C3.2956 11.308 3.13757 11.1203 3.04991 10.8977C2.96226 10.6752 2.94978 10.4301 3.01438 10.1998C3.07897 9.96946 3.21711 9.7666 3.40772 9.62211C3.59834 9.47761 3.83097 9.39942 4.07016 9.39943L4.06569 9.39675ZM4.06569 15.0802C3.89203 15.0805 3.7208 15.0395 3.56609 14.9606C3.41139 14.8817 3.27764 14.7672 3.17585 14.6265C3.07406 14.4858 3.00715 14.3229 2.98062 14.1513C2.95409 13.9797 2.96871 13.8042 3.02327 13.6393C3.07783 13.4745 3.17076 13.3249 3.29443 13.203C3.41809 13.0811 3.56895 12.9903 3.73457 12.9381C3.9002 12.8859 4.07586 12.8737 4.24708 12.9027C4.41831 12.9317 4.58021 13.0009 4.71945 13.1047L3.91455 13.9096L3.76966 13.7387C3.749 13.7135 3.72352 13.6926 3.69471 13.6773C3.66589 13.662 3.63432 13.6526 3.60184 13.6496C3.56935 13.6466 3.5366 13.6501 3.50548 13.6599C3.47436 13.6697 3.4455 13.6856 3.42059 13.7067C3.39567 13.7278 3.3752 13.7536 3.36035 13.7826C3.34551 13.8117 3.33659 13.8434 3.33412 13.8759C3.33165 13.9084 3.33567 13.9411 3.34596 13.9721C3.35625 14.003 3.37259 14.0317 3.39404 14.0562L3.71153 14.4319C3.73338 14.4585 3.76061 14.4802 3.79143 14.4956C3.82225 14.5111 3.85597 14.5198 3.8904 14.5213H3.90024C3.9333 14.5218 3.96615 14.5158 3.99685 14.5035C4.02756 14.4912 4.05552 14.4729 4.0791 14.4497L5.04409 13.4848C5.13103 13.6518 5.17339 13.8385 5.16708 14.0267C5.16077 14.2149 5.10601 14.3984 5.00808 14.5592C4.91015 14.7201 4.77238 14.853 4.60807 14.9451C4.44377 15.0371 4.25849 15.0852 4.07016 15.0847L4.06569 15.0802ZM12.1505 14.6563H6.6056C6.5463 14.6563 6.48943 14.6328 6.4475 14.5908C6.40557 14.5489 6.38201 14.492 6.38201 14.4327C6.38201 14.3734 6.40557 14.3166 6.4475 14.2746C6.48943 14.2327 6.5463 14.2092 6.6056 14.2092H12.1505C12.2098 14.2092 12.2666 14.2327 12.3086 14.2746C12.3505 14.3166 12.3741 14.3734 12.3741 14.4327C12.3741 14.492 12.3505 14.5489 12.3086 14.5908C12.2666 14.6328 12.2098 14.6563 12.1505 14.6563ZM12.1505 13.5831H6.6056C6.5463 13.5831 6.48943 13.5596 6.4475 13.5176C6.40557 13.4757 6.38201 13.4188 6.38201 13.3595C6.38201 13.3002 6.40557 13.2434 6.4475 13.2014C6.48943 13.1595 6.5463 13.136 6.6056 13.136H12.1505C12.2098 13.136 12.2666 13.1595 12.3086 13.2014C12.3505 13.2434 12.3741 13.3002 12.3741 13.3595C12.3741 13.4188 12.3505 13.4757 12.3086 13.5176C12.2666 13.5596 12.2098 13.5831 12.1505 13.5831ZM12.1505 11.1684H6.6056C6.5463 11.1684 6.48943 11.1449 6.4475 11.1029C6.40557 11.061 6.38201 11.0041 6.38201 10.9448C6.38201 10.8855 6.40557 10.8287 6.4475 10.7867C6.48943 10.7448 6.5463 10.7213 6.6056 10.7213H12.1505C12.2098 10.7213 12.2666 10.7448 12.3086 10.7867C12.3505 10.8287 12.3741 10.8855 12.3741 10.9448C12.3741 11.0041 12.3505 11.061 12.3086 11.1029C12.2666 11.1449 12.2098 11.1684 12.1505 11.1684ZM12.3741 9.87164C12.3742 9.90104 12.3685 9.93016 12.3573 9.95734C12.3461 9.98452 12.3296 10.0092 12.3088 10.03C12.288 10.0508 12.2634 10.0673 12.2362 10.0784C12.209 10.0896 12.1799 10.0953 12.1505 10.0952H6.6056C6.5463 10.0952 6.48943 10.0717 6.4475 10.0297C6.40557 9.98781 6.38201 9.93094 6.38201 9.87164C6.38201 9.81234 6.40557 9.75547 6.4475 9.71354C6.48943 9.67161 6.5463 9.64806 6.6056 9.64806H12.1505C12.18 9.64794 12.2093 9.6537 12.2366 9.665C12.2639 9.67631 12.2887 9.69293 12.3095 9.71391C12.3303 9.73488 12.3467 9.75979 12.3578 9.78718C12.3689 9.81457 12.3744 9.84389 12.3741 9.87343V9.87164Z" fill="black"/>
<path d="M15.125 0.603638C14.2629 0.603461 13.42 0.858961 12.7031 1.33782C11.9861 1.81669 11.4273 2.49741 11.0972 3.29389C10.7671 4.09038 10.6807 4.96685 10.8488 5.81247C11.0169 6.65809 11.432 7.43487 12.0415 8.04457C12.6511 8.65428 13.4278 9.06952 14.2734 9.23779C15.119 9.40605 15.9955 9.31978 16.792 8.98989C17.5886 8.65999 18.2694 8.10129 18.7484 7.38444C19.2274 6.66759 19.4831 5.82479 19.4831 4.96262C19.4831 3.8067 19.024 2.69811 18.2067 1.88067C17.3894 1.06323 16.2809 0.603875 15.125 0.603638ZM15.3719 5.54931C15.3723 5.55317 15.3723 5.55707 15.3719 5.56093C15.3695 5.60584 15.3548 5.64923 15.3293 5.68634C15.3039 5.72345 15.2688 5.75285 15.2278 5.77132C15.1868 5.78979 15.1415 5.79662 15.0969 5.79106C15.0522 5.7855 15.01 5.76777 14.9748 5.7398L14.9667 5.73354L13.6834 4.64335L13.5805 4.55391C13.5558 4.53311 13.5355 4.50762 13.5207 4.47891C13.5059 4.45019 13.497 4.41884 13.4944 4.38665C13.4918 4.35446 13.4956 4.32207 13.5057 4.29138C13.5157 4.26068 13.5317 4.23227 13.5528 4.2078C13.5713 4.18335 13.5948 4.16304 13.6216 4.14819C13.6485 4.13334 13.6782 4.12428 13.7088 4.12158C13.7393 4.11889 13.7701 4.12262 13.7992 4.13254C13.8282 4.14246 13.8549 4.15835 13.8774 4.17919L14.8397 5.01628V2.45312C14.8397 2.38196 14.868 2.31372 14.9183 2.2634C14.9686 2.21309 15.0369 2.18482 15.108 2.18482C15.1792 2.18482 15.2474 2.21309 15.2977 2.2634C15.3481 2.31372 15.3763 2.38196 15.3763 2.45312L15.3719 5.54931Z" fill="black"/>
</g>
<defs>
<clipPath id="clip0_2118_1627">
<rect width="20" height="20" fill="white"/>
</clipPath>
</defs>
</svg>
