<svg width="50" height="50" viewBox="0 0 50 50" fill="none" xmlns="http://www.w3.org/2000/svg">
<g clip-path="url(#clip0_1667_8485)">
<path d="M35.9375 26.5625C35.5063 26.5625 35.1562 26.2133 35.1562 25.7812V0H46.0938V15.625C46.0938 16.057 45.7437 16.4062 45.3125 16.4062C44.8813 16.4062 44.5312 16.057 44.5312 15.625V1.5625H36.7188V25.7812C36.7188 26.2133 36.3687 26.5625 35.9375 26.5625Z" fill="black"/>
<path d="M46.0938 50H35.1562V35.9375C35.1562 35.5055 35.5063 35.1562 35.9375 35.1562C36.3687 35.1562 36.7188 35.5055 36.7188 35.9375V48.4375H44.5312V26.5625C44.5312 26.1305 44.8813 25.7812 45.3125 25.7812C45.7437 25.7812 46.0938 26.1305 46.0938 26.5625V50Z" fill="black"/>
<path d="M29.6875 28.9062C29.2563 28.9062 28.9062 28.557 28.9062 28.125V13.2812H21.0938V23.4375C21.0938 23.8695 20.7437 24.2188 20.3125 24.2188C19.8813 24.2188 19.5312 23.8695 19.5312 23.4375V11.7188H30.4688V28.125C30.4688 28.557 30.1187 28.9062 29.6875 28.9062Z" fill="black"/>
<path d="M30.4688 50H19.5312V32.0312C19.5312 31.5992 19.8813 31.25 20.3125 31.25C20.7437 31.25 21.0938 31.5992 21.0938 32.0312V48.4375H28.9062V36.7188C28.9062 36.2867 29.2563 35.9375 29.6875 35.9375C30.1187 35.9375 30.4688 36.2867 30.4688 36.7188V50Z" fill="black"/>
<path d="M4.6875 32.8125C4.25625 32.8125 3.90625 32.4633 3.90625 32.0312V20.3125H14.8438V25C14.8438 25.432 14.4937 25.7812 14.0625 25.7812C13.6313 25.7812 13.2812 25.432 13.2812 25V21.875H5.46875V32.0312C5.46875 32.4633 5.11875 32.8125 4.6875 32.8125Z" fill="black"/>
<path d="M14.8438 50H3.90625V41.4062C3.90625 40.9742 4.25625 40.625 4.6875 40.625C5.11875 40.625 5.46875 40.9742 5.46875 41.4062V48.4375H13.2812V34.375C13.2812 33.943 13.6313 33.5938 14.0625 33.5938C14.4937 33.5938 14.8438 33.943 14.8438 34.375V50Z" fill="black"/>
<path d="M1.56336 40.625C1.09226 40.625 0.62664 40.4133 0.319609 40.0094C-0.203047 39.3226 -0.0710162 38.3422 0.615703 37.8195L17.8149 24.7156L32.4704 32.4289L47.2813 16.1359C47.8618 15.4984 48.8501 15.4508 49.4884 16.0312C50.1266 16.6109 50.1735 17.6 49.5938 18.2383L33.1548 36.3211L18.1227 28.4094L2.50945 40.3055C2.22664 40.5203 1.89383 40.625 1.56336 40.625Z" fill="black"/>
</g>
<defs>
<clipPath id="clip0_1667_8485">
<rect width="50" height="50" fill="white"/>
</clipPath>
</defs>
</svg>
