<svg width="24" height="24" viewBox="0 0 24 24" fill="none" xmlns="http://www.w3.org/2000/svg">
<path d="M1.26666 1.76007C1.87686 1.14997 2.86626 1.14997 3.47646 1.76007L11.7466 10.0303L20.0167 1.76007C20.6269 1.14997 21.6163 1.14997 22.2265 1.76007C22.8366 2.37027 22.8366 3.35967 22.2265 3.96987L13.9563 12.24L22.2265 20.5101C22.8366 21.1203 22.8366 22.1097 22.2265 22.7199C21.6163 23.33 20.6269 23.33 20.0167 22.7199L11.7466 14.4497L3.47646 22.7199C2.86626 23.33 1.87686 23.33 1.26666 22.7199C0.656557 22.1097 0.656557 21.1203 1.26666 20.5101L9.53686 12.24L1.26666 3.96987C0.656557 3.35967 0.656557 2.37027 1.26666 1.76007Z" fill="#E82525" stroke="#E82525" stroke-linecap="round" stroke-linejoin="round"/>
</svg>
