<svg width="50" height="50" viewBox="0 0 50 50" fill="none" xmlns="http://www.w3.org/2000/svg">
<path d="M25 1C11.767 1 1 11.767 1 25C1 32.091 4.094 38.472 9 42.869V42.886L9.348 43.186C9.409 43.239 9.476 43.283 9.538 43.335C9.969 43.699 10.413 44.048 10.869 44.382C10.992 44.472 11.115 44.559 11.24 44.646C11.724 44.986 12.219 45.31 12.727 45.614C12.812 45.665 12.899 45.713 12.984 45.762C13.541 46.086 14.11 46.391 14.694 46.67C14.7 46.673 14.706 46.675 14.712 46.678C15.961 47.273 17.271 47.76 18.627 48.134C18.652 48.141 18.677 48.149 18.702 48.155C19.343 48.33 19.995 48.477 20.656 48.598C20.718 48.609 20.779 48.62 20.841 48.631C21.479 48.743 22.125 48.832 22.78 48.893C22.855 48.9 22.93 48.904 23.004 48.91C23.663 48.965 24.327 49 25 49C25.673 49 26.337 48.965 26.996 48.91C27.071 48.904 27.146 48.9 27.22 48.893C27.875 48.833 28.521 48.743 29.159 48.631C29.221 48.62 29.282 48.609 29.344 48.598C30.005 48.477 30.657 48.33 31.298 48.155C31.323 48.148 31.348 48.141 31.373 48.134C32.729 47.76 34.039 47.273 35.288 46.678C35.294 46.675 35.3 46.673 35.306 46.67C35.89 46.391 36.459 46.085 37.016 45.762C37.102 45.712 37.188 45.665 37.273 45.614C37.782 45.31 38.277 44.985 38.76 44.646C38.884 44.559 39.008 44.472 39.131 44.382C39.587 44.048 40.031 43.699 40.462 43.335C40.524 43.283 40.591 43.239 40.652 43.186L41 42.886V42.869C45.906 38.471 49 32.091 49 25C49 11.767 38.233 1 25 1ZM25 25C20.589 25 17 21.411 17 17C17 12.589 20.589 9 25 9C29.411 9 33 12.589 33 17C33 21.411 29.411 25 25 25ZM28 27C34.065 27 39 31.935 39 38V41.958C38.958 41.993 38.914 42.025 38.872 42.06C38.477 42.381 38.072 42.686 37.658 42.978C37.566 43.043 37.476 43.11 37.384 43.173C36.937 43.478 36.478 43.764 36.011 44.035C35.926 44.085 35.84 44.134 35.754 44.183C35.264 44.458 34.765 44.716 34.256 44.952C34.203 44.977 34.149 45.001 34.095 45.025C32.434 45.78 30.684 46.327 28.883 46.651C28.826 46.661 28.769 46.672 28.712 46.682C28.145 46.779 27.573 46.854 26.997 46.907C26.918 46.914 26.838 46.919 26.758 46.925C26.175 46.97 25.589 47 25 47C24.411 47 23.825 46.97 23.242 46.923C23.163 46.917 23.083 46.912 23.003 46.905C22.427 46.852 21.855 46.778 21.288 46.68C21.231 46.67 21.174 46.66 21.117 46.649C19.316 46.325 17.566 45.778 15.905 45.023C15.851 44.998 15.797 44.975 15.744 44.95C15.235 44.714 14.736 44.456 14.246 44.181C14.16 44.132 14.075 44.083 13.989 44.033C13.522 43.763 13.063 43.476 12.616 43.171C12.523 43.108 12.433 43.041 12.342 42.976C11.928 42.684 11.523 42.38 11.128 42.058C11.086 42.024 11.042 41.991 11 41.956V38C11 31.935 15.935 27 22 27H28ZM41 40.076V38C41 31.729 36.536 26.481 30.62 25.265C33.261 23.464 35 20.431 35 17C35 11.486 30.514 7 25 7C19.486 7 15 11.486 15 17C15 20.431 16.739 23.464 19.38 25.265C13.464 26.481 9 31.729 9 38V40.076C5.284 36.135 3 30.831 3 25C3 12.869 12.869 3 25 3C37.131 3 47 12.869 47 25C47 30.831 44.716 36.135 41 40.076Z" fill="black"/>
</svg>
